<svg width="449" height="485" viewBox="0 0 449 485" fill="none" xmlns="http://www.w3.org/2000/svg">
<path d="M420.915 484.114C415.904 483.653 411.403 482.243 406.654 480.629C405.32 480.231 403.985 479.834 402.61 479.425C386.941 474.677 377.006 467.419 368.077 453.755C363.864 445.6 363.851 436.764 364.388 427.824C364.437 426.801 364.486 425.777 364.536 424.723C364.768 419.908 365.048 415.098 365.366 410.289C365.413 409.478 365.459 408.667 365.507 407.832C365.631 405.675 365.778 403.519 365.927 401.364C366.005 394.315 364.086 387.272 362.603 380.42C362.459 382.296 362.459 382.296 362.312 384.21C361.948 388.888 361.566 393.565 361.178 398.241C361.013 400.258 360.853 402.275 360.699 404.293C360.475 407.208 360.233 410.121 359.987 413.034C359.922 413.924 359.858 414.813 359.792 415.73C358.949 425.264 356.023 434.186 348.892 440.853C332.999 452.545 319.79 454.981 300.579 453.427C293.367 452.912 286.88 453.417 279.739 454.657C275.668 455.152 272.297 455.169 268.258 454.419C263.033 450.159 262.096 444.729 261.411 438.253C260.246 416.475 262.665 395 276.637 377.747C290.219 363.739 311.561 361.678 329.978 361.265C316.294 350.704 300.096 346.672 283.635 342.429C272.142 339.403 261.219 335.234 250.756 329.577C249.739 329.032 248.722 328.487 247.674 327.925C246.949 327.529 246.224 327.132 245.478 326.724C243.593 329.526 243.122 331.628 242.359 334.9C240.873 340.436 239.216 343.619 235.133 347.629C230.875 350.083 226.832 349.782 222.089 349.072C217.5 347.637 213.932 345.481 210.025 342.758C201.887 337.174 193.325 333.96 183.889 331.217C163.897 325.356 143.774 315.93 132.899 297.247C131.154 293.318 130.255 289.733 129.477 285.51C129.22 284.161 128.964 282.813 128.699 281.424C128.173 277.869 127.944 274.478 127.933 270.889C127.266 271.26 126.599 271.631 125.911 272.014C101.245 285.066 73.7296 276.268 48.6451 268.644C46.3978 267.917 44.1529 267.182 41.9104 266.44C26.144 261.195 26.144 261.195 9.70887 259.327C6.59258 259.052 5.28888 258.513 2.95416 256.489C0.699508 253.566 0.132384 250.684 -1.59331e-05 247.073C1.1602 239.494 4.37026 232.774 7.5728 225.876C9.89034 220.671 11.2047 215.537 12.3069 209.959C15.4413 194.326 23.3261 182.967 35.8603 173.211C37.0587 172.262 37.0587 172.262 38.2813 171.295C64.5235 150.801 93.462 151.329 125.198 154.817C117.83 150.651 110.442 146.664 102.782 143.061C88.4305 136.3 78.9319 130.834 71.0632 116.552C69.9426 114.686 68.8151 112.825 67.6793 110.968C67.1555 110.091 66.6317 109.215 66.092 108.311C64.9665 106.434 63.8299 104.563 62.6849 102.697C62.0997 101.741 61.5146 100.784 60.9116 99.7992C60.3847 98.9432 59.8578 98.0873 59.3149 97.2053C52.1863 84.5707 52.7995 70.9761 55.5658 57.1813C57.52 47.4255 58.0917 38.3431 57.8596 28.3984C57.6906 20.2905 58.2696 13.1703 61.2002 5.55463C64.7481 2.50768 68.693 2.70381 73.234 2.85151C74.2958 3.01008 75.3576 3.1687 76.4515 3.3321C80.5324 3.78551 84.3483 3.48546 88.4086 3.07331C95.3212 2.44963 102.101 2.28602 109.037 2.43559C119.62 2.6548 130.008 1.70886 140.512 0.448201C152.993 -0.875015 165.235 0.435003 175.379 8.39531C188.742 21.2494 192.818 37.1014 193.303 55.277C193.479 77.0011 187.215 97.9085 181.197 118.606C178.009 129.881 177.749 140.622 178.002 152.253C193.79 141.066 206.627 129.893 217.809 113.906C230.975 95.5325 246.383 85.2157 268.488 81.2305C287.303 78.3569 301.111 87.3318 316.086 97.4539C317.199 98.2023 318.312 98.9508 319.458 99.7219C329.23 106.686 337.684 115.45 344.718 125.156C347.734 128.771 351.335 131.809 354.845 134.934C360.557 140.393 360.474 147.94 360.883 155.407C360.995 157.61 360.995 157.61 362.644 159.413C364.315 163.82 363.861 166.642 362.183 170.887C359.248 177.334 355.62 183.315 351.836 189.293C351.267 190.228 350.699 191.162 350.113 192.125C335.709 214.866 312.392 234.187 285.891 240.31C278.352 241.649 269.296 242.287 261.859 240.226C262.208 241.074 262.557 241.921 262.917 242.795C267.639 256.348 265 268.537 261.528 282.144C261.052 284.062 261.052 284.062 260.567 286.018C259.792 289.133 259.008 292.245 258.215 295.356C259.016 295.044 259.817 294.731 260.643 294.409C284.127 285.404 284.127 285.404 294.013 289.197C294.691 289.517 295.37 289.837 296.068 290.166C297.073 290.579 297.073 290.579 298.097 291.001C318.186 300.654 333.203 324.911 345.229 342.731C345.028 342.05 344.828 341.37 344.621 340.668C331.565 296.131 331.565 296.131 337.927 282.04C343.359 272.494 352.571 267.379 362.304 262.969C365.62 262.137 367.79 261.96 371.136 262.055C377.127 262.132 382.96 261.612 388.91 260.953C390.875 260.741 392.841 260.531 394.808 260.323C395.724 260.226 396.64 260.129 397.585 260.029C400.069 259.809 400.069 259.809 403.624 259.777C407.336 259.59 410.445 258.618 413.985 257.501C420.013 255.782 423.695 255.214 429.575 257.364C431.592 258.721 431.644 260.598 432.287 262.906C432.568 263.908 432.85 264.909 433.14 265.941C433.442 267.036 433.744 268.13 434.055 269.258C434.698 271.568 435.341 273.879 435.985 276.19C436.484 277.989 436.484 277.989 436.994 279.825C437.996 283.395 439.029 286.954 440.073 290.512C446.437 312.331 450.58 332.608 440.175 354.157C433.351 365.564 422.209 370.889 409.865 374.012C409.082 374.214 408.299 374.415 407.493 374.622C405.574 375.115 403.655 375.603 401.735 376.09C402.563 376.598 402.563 376.598 403.408 377.115C442.652 401.236 442.652 401.236 447.625 421.522C451.206 442.952 445.005 458.548 433.002 476.234C429.422 480.852 426.895 483.724 420.915 484.114ZM429.556 472.813C435.865 462.692 440.13 452.174 442.085 440.375C442.257 439.341 442.43 438.307 442.608 437.241C443.791 427.275 442.75 415.615 437.157 407.052C427.508 395.276 413.436 386.946 400.224 379.717C398.744 378.893 398.744 378.893 397.234 378.051C387.633 372.807 387.633 372.807 377.18 369.792C376.191 370.352 375.201 370.913 374.181 371.49C380.553 375.389 386.947 379.161 393.573 382.616C403.067 387.669 412.438 392.846 418.944 401.595C417.325 400.812 415.706 400.03 414.038 399.224C413.754 399.646 413.47 400.068 413.178 400.503C411.326 400.548 409.472 400.542 407.621 400.48C406.5 398.501 405.38 396.521 404.225 394.482C400.979 394.751 397.734 395.02 394.39 395.297C399.904 400.906 399.904 400.906 405.574 406.356C411.369 411.795 416.676 417.382 421.594 423.634C422.339 424.563 422.339 424.563 423.099 425.511C426.498 429.956 428.182 434.082 429.691 439.47C428.986 439.609 428.28 439.747 427.552 439.889C427.083 438.194 427.083 438.194 426.604 436.465C424.899 432.325 423.854 431.105 419.901 429.171C419.195 429.309 418.489 429.448 417.762 429.59C417.133 428.247 416.503 426.905 415.855 425.521C415.149 425.659 414.443 425.798 413.716 425.94C413.412 425.355 413.109 424.77 412.796 424.168C410.065 419.099 407.348 415.238 403.088 411.363C402.567 415.394 403.299 416.606 405.093 420.184C405.609 421.24 406.125 422.295 406.656 423.383C407.755 425.593 408.858 427.8 409.966 430.006C412.811 435.847 414.833 440.343 414.486 446.89C413.824 445.705 413.163 444.52 412.482 443.3C405.108 429.673 405.108 429.673 396.274 416.996C394.575 414.661 394.765 413.495 395.182 410.689C395.718 406.54 394.989 405.917 392.57 402.663C391.994 401.879 391.418 401.094 390.824 400.285C390.374 399.69 389.924 399.096 389.461 398.483C389.108 398.552 388.755 398.621 388.391 398.692C389.049 418.454 392.894 431.464 404.629 447.359C406.678 450.447 407.705 453.35 408.674 456.912C407.761 455.991 406.848 455.07 405.907 454.122C405.244 453.542 404.58 452.962 403.897 452.364C401.966 450.57 400.429 448.741 398.884 446.613C398.531 446.682 398.178 446.751 397.814 446.822C399.588 453.071 399.588 453.071 401.397 459.447C396.443 450.347 393.36 441.955 391.507 431.776C391.13 429.78 390.753 427.784 390.375 425.788C389.792 422.668 389.213 419.548 388.638 416.427C388.078 413.395 387.505 410.366 386.93 407.338C386.763 406.409 386.596 405.48 386.424 404.523C385.467 399.526 384.416 395.387 381.368 391.183C378.382 390.169 378.382 390.169 375.602 390.091C376.155 392.915 376.707 395.738 377.277 398.647C376.924 398.716 376.571 398.785 376.207 398.857C376.27 399.796 376.332 400.736 376.396 401.705C376.783 408.664 376.792 414.562 375.048 421.295C375.006 423.147 374.992 425 375.025 426.852C374.503 419.36 374.358 412.243 375.355 404.785C376.077 398.767 376.109 394.838 373.253 389.44C370.861 388.54 370.861 388.54 368.556 388.139C368.683 389.341 368.809 390.543 368.94 391.781C369.937 401.798 370.489 411.69 370.557 421.757C370.757 437.377 371.437 453.818 383.156 465.5C391.279 472.309 400.915 475.112 410.927 477.988C411.744 478.226 412.561 478.463 413.404 478.709C421.611 480.965 424.882 479.65 429.556 472.813ZM397.605 445.752C395.698 441.684 395.698 441.684 395.698 441.684L397.605 445.752ZM329.488 444.773C332.232 442.612 335.121 441.48 338.342 440.142C345.364 437.123 350.092 433.579 353.693 426.643C355.542 421.17 355.98 415.213 356.073 409.462C355.582 408.825 355.091 408.188 354.585 407.532C352.529 410.134 350.473 412.735 348.354 415.415C348.723 414.725 349.092 414.034 349.471 413.323C351.371 409.059 351.932 404.895 352.049 400.255C350.033 401.293 350.033 401.293 348.19 403.232C348.018 404.811 348.018 404.811 347.843 406.423C347.127 411.293 345.22 413.083 341.937 416.672C342.024 414.246 342.169 412.185 342.82 409.836C341.477 410.465 340.134 411.095 338.751 411.743C337.838 410.822 336.924 409.902 335.984 408.953C335.631 409.95 335.631 409.95 335.272 410.967C331.041 422.069 324.869 429.574 315.632 436.884C314.974 437.412 314.316 437.939 313.638 438.483C309.391 441.699 308.09 442.183 302.506 442.161C306.963 438.723 311.421 435.285 316.013 431.742C315.875 431.036 315.737 430.33 315.595 429.603C317.29 428.905 318.986 428.206 320.733 427.487C320.595 426.781 320.456 426.075 320.314 425.348C321.657 424.718 322.999 424.089 324.383 423.44C324.245 422.734 324.106 422.029 323.964 421.301C324.901 420.82 325.837 420.339 326.802 419.843C329.727 418.05 330.961 417.017 332.543 414.069C332.052 413.432 331.561 412.795 331.055 412.139C330.331 412.845 329.607 413.551 328.862 414.278C318.071 424.548 306.711 432.663 292.902 438.488C294.119 437.779 295.336 437.07 296.59 436.339C311.178 427.73 323.364 419.359 333.007 405.094C333.858 403.848 334.708 402.603 335.559 401.358C337.888 397.93 340.182 394.481 342.468 391.025C343.32 389.759 344.171 388.493 345.049 387.188C342.08 388.869 339.11 390.55 336.051 392.282C336.911 391.003 337.771 389.724 338.632 388.445C337.365 387.593 336.099 386.742 334.795 385.864C334.392 386.411 333.99 386.958 333.575 387.522C333.033 388.236 332.492 388.951 331.934 389.687C331.403 390.396 330.872 391.106 330.325 391.837C328.564 393.748 328.564 393.748 324.495 395.655C328.255 390.521 332.014 385.387 335.887 380.098C335.112 379.883 334.337 379.668 333.538 379.447C330.427 381.227 327.63 383.48 324.75 385.61C324.115 386.018 323.481 386.425 322.827 386.845C318.181 389.983 315.146 393.93 311.927 398.463C304.603 408.749 296.437 416.183 285.274 422.213C284.537 421.258 284.537 421.258 283.785 420.283C284.499 419.621 285.212 418.959 285.947 418.277C286.88 417.403 287.813 416.529 288.773 415.628C289.699 414.764 290.625 413.9 291.579 413.01C293.63 410.949 295.293 409.204 296.665 406.656C296.527 405.95 296.388 405.245 296.246 404.517C299.319 403.366 299.319 403.366 302.454 402.191C302.316 401.485 302.177 400.779 302.035 400.052C303.299 398 303.299 398 304.615 396.215C300.044 398.609 296.386 401.371 292.558 404.823C291.557 405.72 290.556 406.618 289.524 407.542C288.773 408.225 288.022 408.907 287.248 409.611C294.108 401.372 300.662 395.106 309.986 389.611C309.425 388.621 308.865 387.632 308.288 386.612C307.651 387.103 307.014 387.594 306.358 388.1C306.151 387.041 305.944 385.983 305.73 384.892C304.249 384.815 302.768 384.739 301.242 384.66C302.163 383.747 303.084 382.833 304.032 381.892C303.326 382.031 302.62 382.169 301.893 382.311C301.755 381.605 301.617 380.899 301.474 380.172C302.405 380.007 303.335 379.843 304.294 379.673C307.781 379.047 311.265 378.407 314.748 377.756C316.249 377.479 317.751 377.208 319.254 376.942C327.495 375.484 334.698 374.166 341.489 369.006C340.159 366.843 340.159 366.843 337.686 366.623C327.774 365.724 318.894 366.296 309.216 368.662C307.945 368.972 306.674 369.282 305.365 369.602C292.868 372.999 280.727 379.718 273.431 390.799C268.388 401.367 267.468 413.734 266.011 425.221C265.871 426.268 265.732 427.316 265.587 428.395C264.814 435.058 265.168 440.418 266.792 446.932C275.349 449.834 282.584 451.178 291.602 450.482C295.278 450.249 298.809 450.364 302.485 450.563C317.101 451.322 317.101 451.322 329.488 444.773ZM355.445 406.253C356.608 404.841 356.608 404.841 355.835 402.221C355.645 401.365 355.454 400.509 355.258 399.627C354.69 400.471 354.123 401.315 353.538 402.185C354.32 404.373 354.32 404.373 355.445 406.253ZM356.327 399.417C355.698 398.075 355.069 396.732 354.42 395.349C354.206 396.124 353.991 396.899 353.77 397.697C354.614 398.265 355.458 398.832 356.327 399.417ZM369.416 386.86C367.719 383.861 367.719 383.861 367.719 383.861L369.416 386.86ZM309.754 394.099C310.321 393.255 310.889 392.411 311.474 391.541C309.778 392.239 308.083 392.938 306.336 393.657C307.464 393.803 308.592 393.949 309.754 394.099ZM346.979 385.7C347.726 383.904 347.726 383.904 348.489 382.073C347.216 383.055 345.942 384.037 344.63 385.049C345.405 385.264 346.18 385.479 346.979 385.7ZM428.1 357.602C427.256 357.034 426.411 356.466 425.542 355.881C425.957 350.018 428.77 347.143 432.607 343.045C433.445 342.125 433.445 342.125 434.299 341.185C435.671 339.68 437.056 338.187 438.444 336.697C437.938 337.665 437.432 338.633 436.91 339.631C434.133 344.78 434.133 344.78 432.217 350.271C431.54 352.486 431.54 352.486 428.75 355.253C428.889 355.959 429.027 356.665 429.169 357.392C437.628 351.578 440.765 341.289 442.803 331.688C444.491 321.042 442.711 312.273 439.439 302.075C438.938 302.906 438.436 303.738 437.92 304.594C435.999 307.191 435.999 307.191 432.79 307.819C432.914 303.492 432.914 303.492 433.882 302.053C433.957 300.313 433.978 298.571 433.97 296.83C433.969 295.887 433.967 294.944 433.966 293.972C433.953 292.971 433.94 291.97 433.927 290.938C433.961 289.91 433.994 288.881 434.028 287.821C433.655 283.266 432.253 279.509 430.584 275.282C430.294 274.496 430.005 273.71 429.706 272.901C428.12 268.808 427.069 266.216 423.135 264.177C414.457 263.41 405.909 264.479 397.268 265.355C381.369 266.967 381.369 266.967 373.433 266.614C363.482 266.213 356.394 270.174 349.042 276.48C345.287 280.055 342.873 283.103 341.176 287.998C340.881 288.8 340.586 289.602 340.281 290.429C336.169 305.271 343.355 321.849 349.32 335.267C351.05 331.113 350.606 329.479 349.575 325.222C352.816 329.724 352.816 329.724 352.32 333.569C352.626 334.197 352.932 334.824 353.247 335.47C354.463 338.161 354.355 340.276 354.204 343.195C356.391 343.134 358.578 343.072 360.831 343.008C360.588 341.858 360.345 340.707 360.095 339.521C359.192 335.219 358.311 330.913 357.436 326.605C357.056 324.748 356.67 322.891 356.278 321.035C355.712 318.356 355.168 315.673 354.628 312.989C354.451 312.17 354.273 311.352 354.091 310.509C352.497 302.381 353.342 295.238 357.848 288.065C358.803 287.328 358.803 287.328 359.777 286.577C359.27 287.73 358.763 288.883 358.24 290.071C356.493 293.508 356.493 293.508 357.174 295.971C358.844 297.169 360.549 298.32 362.29 299.411C361.856 300 361.421 300.589 360.974 301.196C359.442 303.163 359.442 303.163 360.128 305.387C361.678 305.817 363.228 306.246 364.825 306.689C362.839 309.643 360.852 312.598 358.804 315.641C359.296 316.278 359.787 316.915 360.293 317.571C361.781 315.814 363.269 314.056 364.803 312.246C364.481 313.408 364.481 313.408 364.152 314.594C365.065 315.515 365.979 316.436 366.919 317.384C366.774 318.512 366.628 319.64 366.478 320.802C367.038 321.792 367.599 322.782 368.176 323.802C372.837 322.339 372.837 322.339 377.592 320.847C377.609 320.05 377.626 319.252 377.643 318.43C377.729 314.769 377.841 311.11 377.954 307.45C377.98 306.195 378.005 304.94 378.032 303.648C378.325 294.952 378.809 286.857 385.237 280.482C386.296 280.274 387.355 280.067 388.446 279.853C387.905 284.038 386.71 285.364 383.882 288.451C383.186 289.343 382.491 290.235 381.774 291.155C381.981 292.213 382.188 293.272 382.402 294.363C384.312 292.89 386.223 291.416 388.191 289.898C387.973 291.59 387.973 291.59 387.75 293.316C388.172 293.6 388.594 293.884 389.029 294.176C389.52 294.813 390.011 295.45 390.517 296.106C389.596 297.019 388.676 297.932 387.727 298.873C387.935 299.932 388.142 300.991 388.355 302.082C387.366 302.642 386.376 303.202 385.356 303.78C384.122 305.577 384.122 305.577 383.123 307.618C382.51 308.815 381.897 310.011 381.265 311.244C381.756 311.881 382.247 312.518 382.753 313.174C381.764 313.734 380.774 314.294 379.754 314.871C379.808 318.892 379.863 322.913 379.918 327.055C392.559 317.306 401.446 300.134 408.67 286.127C411.429 281.244 415.15 278.118 419.672 274.85C419.134 278.193 418.771 280.333 416.859 283.175C417.136 284.586 417.412 285.998 417.697 287.453C416.742 288.19 416.742 288.19 415.767 288.941C415.092 290.173 414.417 291.404 413.722 292.673C411.676 296.405 411.676 296.405 409.746 297.894C409.885 298.6 410.023 299.306 410.165 300.033C413.212 298.105 416.131 296.114 418.954 293.87C414.695 301.747 407.215 306.255 400.054 311.339C391.055 317.905 385.382 325.791 379.245 334.961C382.214 333.28 385.184 331.599 388.243 329.868C387.959 330.29 387.675 330.712 387.383 331.147C387.521 331.852 387.659 332.558 387.802 333.286C387.041 333.732 386.281 334.179 385.498 334.639C382.865 336.221 382.865 336.221 381.754 338.27C379.275 341.728 375.581 343.635 372.06 345.942C369.421 348.084 368.412 349.729 367.203 352.866C374.016 350.061 380.185 346.783 386.413 342.858C387.317 342.29 388.221 341.721 389.152 341.135C402.474 332.637 413.986 323.302 424.652 311.634C425.075 311.917 425.497 312.201 425.931 312.494C425.97 316.234 425.97 316.234 425.258 320.399C422.432 322.272 422.432 322.272 419.26 323.795C418.087 325.482 416.939 327.187 415.819 328.911C413.14 330.823 413.14 330.823 410.89 332.097C410.959 332.45 411.028 332.803 411.1 333.166C417.183 332.242 422.234 330.27 427.794 327.677C420.288 333.251 412.767 336.039 403.837 338.614C401.397 339.329 398.958 340.052 396.523 340.784C395.456 341.092 394.389 341.401 393.29 341.719C390.53 342.512 390.53 342.512 389.035 345.26C392.281 344.991 395.527 344.722 398.871 344.445C398.303 345.289 397.735 346.133 397.15 347.003C401.317 345.821 405.483 344.639 409.776 343.42C408.571 344.756 407.367 346.091 406.126 347.467C407.959 347.474 409.793 347.482 411.683 347.489C410.056 348.541 408.43 349.592 406.754 350.675C406.823 351.028 406.892 351.381 406.963 351.745C411.199 350.916 415.434 350.086 419.798 349.232C409.718 355.206 399.5 355.409 388.08 354.802C382.889 354.55 378.449 354.882 373.388 356.097C374.348 358.147 374.348 358.147 376.365 359.957C380.347 360.581 383.521 360.777 387.479 360.002C389.084 360.191 390.683 360.438 392.272 360.729C393.096 360.877 393.919 361.025 394.768 361.178C395.394 361.296 396.019 361.414 396.664 361.535C389.846 362.462 384.299 362.661 377.644 360.817C377.921 362.229 378.197 363.64 378.482 365.095C392.505 369.543 418.432 371.977 428.1 357.602ZM367.345 370.607C366.644 368.54 366.644 368.54 365.438 366.538C364.31 366.393 363.182 366.247 362.02 366.097C364.073 369.162 364.073 369.162 367.345 370.607ZM373.134 366.142C372.366 364.093 371.599 362.045 370.808 359.934C368.974 359.927 367.14 359.919 365.251 359.912C365.742 360.548 366.233 361.185 366.739 361.841C367.445 361.703 368.151 361.565 368.878 361.423C369.93 363.049 370.981 364.676 372.064 366.351C372.417 366.282 372.77 366.213 373.134 366.142ZM358.624 360.099C358.064 359.109 357.504 358.119 356.926 357.099C357.134 358.158 357.341 359.217 357.555 360.308C357.908 360.239 358.261 360.17 358.624 360.099ZM343.232 360.891C329.988 346.544 316.222 339.081 297.222 335.056C284.065 332.075 271.826 328.57 261.753 319.095C262.604 317.829 262.604 317.829 263.473 316.537C264.996 317.089 266.516 317.649 268.035 318.212C268.882 318.523 269.728 318.834 270.601 319.155C272.952 320.157 274.831 321.326 276.913 322.79C280.745 324.573 284.16 325.11 288.324 325.415C293.333 325.804 297.28 327.031 301.821 329.141C302.479 329.338 303.138 329.536 303.816 329.739C305.301 328.899 305.301 328.899 306.815 328.041C306.029 327.58 305.243 327.118 304.433 326.642C303.407 326.039 302.382 325.435 301.325 324.813C300.306 324.214 299.286 323.614 298.236 322.997C296.448 321.928 294.686 320.812 292.956 319.649C303.152 322.402 311.367 327.331 320.046 333.225C314.182 320.907 301.865 312.493 289.614 307.472C287.026 306.373 287.026 306.373 284.468 304.653C299.689 308.075 308.312 314.149 318.58 325.738C320.065 324.897 320.065 324.897 321.58 324.04C320.667 323.005 319.754 321.97 318.814 320.903C316.917 318.752 315.567 316.917 314.138 314.392C317.508 317.219 319.969 320.355 322.649 323.831C324.406 325.756 326.195 327.645 328.002 329.524C329.672 331.34 329.672 331.34 331.227 333.456C332.544 335.414 332.544 335.414 334.997 335.85C326.424 318.133 309.039 302.356 290.683 295.553C284.807 293.655 280.508 293.715 274.554 295.142C273.742 295.32 272.931 295.499 272.095 295.682C270.363 296.069 268.634 296.468 266.907 296.876C264.089 297.542 261.264 298.167 258.437 298.792C256.544 299.226 254.651 299.663 252.759 300.103C251.873 300.301 250.986 300.499 250.073 300.703C244.908 301.96 241.052 303.332 237.221 307.24C236.323 309.504 236.323 309.504 236.989 311.728C238.487 313.672 238.487 313.672 240.608 315.323C241.284 315.897 241.961 316.472 242.658 317.064C243.458 317.712 244.257 318.36 245.081 319.028C246.103 319.901 247.124 320.775 248.176 321.675C251.68 324.511 255.453 326.678 259.469 328.704C260.219 329.082 260.968 329.461 261.739 329.85C270.618 334.202 279.824 337.39 289.239 340.367C290.386 340.73 291.533 341.093 292.715 341.467C296.403 342.621 300.097 343.753 303.795 344.874C304.973 345.236 306.151 345.598 307.365 345.971C308.471 346.299 309.576 346.626 310.715 346.964C311.7 347.259 312.684 347.554 313.699 347.858C316.621 348.614 316.621 348.614 320.629 347.548C324.635 348.657 326.403 349.506 329.373 352.499C330.079 352.361 330.785 352.223 331.512 352.08C331.719 353.139 331.926 354.198 332.14 355.289C332.915 355.504 333.69 355.718 334.489 355.94C334.696 356.998 334.903 358.057 335.117 359.148C339.035 360.986 339.035 360.986 343.232 360.891ZM351.228 339.336C349.739 337.406 349.739 337.406 349.739 337.406L351.228 339.336ZM337.974 339.71C336.486 337.78 336.486 337.78 336.486 337.78L337.974 339.71ZM377.151 324.265C375.663 322.336 375.663 322.336 375.663 322.336L377.151 324.265ZM324.975 330.039C323.709 329.187 322.443 328.336 321.138 327.458C321.699 328.448 322.259 329.438 322.836 330.457C323.542 330.319 324.248 330.181 324.975 330.039ZM239.634 328.076C240.013 327.2 240.391 326.325 240.781 325.422C238.887 322.701 236.779 320.658 234.29 318.503C231.907 316.256 230.943 315.013 229.601 311.925C229.795 307.236 231.855 305.354 235.104 302.102C238.631 300.013 242.381 299.456 246.379 298.714C247.633 298.479 248.887 298.243 250.179 298.001C251.135 297.827 252.092 297.652 253.077 297.472C253.883 294.355 254.683 291.237 255.479 288.118C255.705 287.248 255.93 286.377 256.163 285.481C259.359 274.347 259.359 274.347 258.56 263.083C257.854 263.221 257.148 263.359 256.421 263.501C255.653 261.453 254.886 259.404 254.095 257.294C253.742 257.363 253.389 257.432 253.025 257.503C253.363 261.102 253.701 264.7 254.05 268.408C253.344 268.546 252.638 268.684 251.911 268.827C250.075 273.233 250.795 275.389 251.866 279.941C250.381 280.781 250.381 280.781 248.866 281.639C248.53 283.911 248.235 286.191 247.984 288.475C247.029 289.211 247.029 289.211 246.054 289.963C245.363 286.434 244.672 282.904 243.96 279.268C244.666 279.129 245.372 278.991 246.099 278.849C246.14 277.421 246.181 275.993 246.224 274.521C246.318 271.227 246.393 270.127 248.283 267.316C248.537 264.969 248.537 264.969 248.515 262.828C249.29 263.043 250.065 263.258 250.864 263.479C250.312 260.51 249.753 257.542 249.19 254.575C248.957 253.312 248.957 253.312 248.718 252.023C248.563 251.213 248.408 250.402 248.248 249.567C248.038 248.448 248.038 248.448 247.823 247.306C247.33 245.042 247.33 245.042 245.606 242.297C243.772 242.29 241.938 242.283 240.049 242.275C239.489 241.285 238.928 240.295 238.351 239.276C237.576 239.061 236.801 238.846 236.003 238.625C235.442 237.635 234.882 236.645 234.305 235.626C232.618 234.452 230.912 233.306 229.189 232.185C228.276 231.264 227.363 230.344 226.422 229.395C225.716 229.533 225.01 229.672 224.283 229.814C224.145 229.108 224.006 228.402 223.864 227.675C222.379 228.515 222.379 228.515 220.865 229.373C221.632 231.421 222.4 233.47 223.191 235.581C220.612 232.981 218.035 230.381 215.463 227.775C213.227 225.518 210.965 223.294 208.679 221.087C201.2 213.809 194.83 206.289 188.91 197.7C186.795 194.652 184.604 191.661 182.423 188.66C181.121 186.856 179.819 185.052 178.518 183.247C177.881 183.738 177.244 184.229 176.588 184.735C177.001 186.029 177.415 187.322 177.841 188.655C178.074 189.382 178.306 190.11 178.546 190.859C179.27 193.065 179.27 193.065 180.304 194.962C182.022 198.98 182.351 203.399 183.018 207.696C184.073 211.449 185.468 213.08 188.218 215.775C189.437 218.104 189.437 218.104 190.125 219.844C190.831 219.705 191.537 219.567 192.264 219.425C193.515 223.944 194.767 228.463 196.056 233.119C195.004 231.493 193.953 229.866 192.87 228.191C192.164 228.329 191.458 228.467 190.731 228.609C190.461 226.493 190.191 224.377 189.921 222.261C189.223 219.814 189.223 219.814 186.612 218.609C182.709 215.693 182.173 212.268 180.943 207.69C179.295 201.322 179.295 201.322 175.473 196.059C174.836 196.55 174.2 197.041 173.544 197.547C173.052 196.911 172.561 196.274 172.055 195.618C174.646 208.028 177.721 218.14 185.173 228.587C185.685 229.341 186.196 230.096 186.723 230.873C191.39 237.419 196.545 241.319 203.339 245.506C218.564 255.349 230.021 266.865 234.133 285.243C234.378 286.561 234.623 287.879 234.876 289.236C235.127 290.57 235.378 291.904 235.637 293.278C235.821 294.287 236.006 295.296 236.196 296.335C235.684 295.359 235.173 294.383 234.645 293.377C233.161 290.148 233.161 290.148 230.452 289.686C226.735 284.034 225.925 278.289 224.948 271.655C224.676 270.684 224.405 269.714 224.125 268.714C222.928 268.215 221.731 267.717 220.498 267.203C220.767 270.449 221.036 273.694 221.313 277.038C220.689 276.428 220.066 275.817 219.423 275.187C218.712 274.594 218 274 217.266 273.388C216.561 273.527 215.855 273.665 215.127 273.807C214.851 272.395 214.575 270.984 214.29 269.529C213.584 269.667 212.878 269.805 212.151 269.948C212.289 270.654 212.427 271.36 212.569 272.087C211.511 272.294 210.452 272.502 209.361 272.715C211.552 279.205 214.162 285.465 216.844 291.769C218.026 294.838 218.72 297.542 219.293 300.755C219.013 300.173 218.733 299.59 218.444 298.99C215.479 292.829 212.506 286.671 209.528 280.516C208.423 278.23 207.321 275.943 206.221 273.655C199.578 259.846 192.721 246.281 184.941 233.074C184.588 233.143 184.236 233.213 183.872 233.284C183.977 234.638 184.081 235.991 184.189 237.386C184.373 239.849 184.482 242.01 184.187 244.466C184.09 246.739 184.09 246.739 185.731 249.161C187.413 252.133 188.294 254.467 189.21 257.712C190.813 263.27 193.164 267.977 196.105 272.964C196.714 274.008 197.324 275.053 197.952 276.129C198.535 277.104 199.118 278.079 199.719 279.084C201.287 282.262 201.923 285.014 202.457 288.504C203.052 291.541 203.985 294.021 205.202 296.851C205.555 296.782 205.908 296.713 206.271 296.641C206.97 298.337 207.668 300.033 208.388 301.78C208.741 301.711 209.094 301.642 209.458 301.57C209.803 303.335 210.149 305.1 210.505 306.918C209.377 306.773 208.249 306.627 207.087 306.477C208.131 309.937 209.174 313.398 210.25 316.963C192.383 285.429 177.978 254.928 170.035 219.335C168.393 222.59 167.073 225.788 165.971 229.262C165.673 230.193 165.375 231.124 165.068 232.083C164.764 233.044 164.46 234.004 164.147 234.994C163.539 236.908 162.929 238.822 162.317 240.736C162.05 241.58 161.783 242.424 161.508 243.293C160.835 245.299 160.04 247.262 159.227 249.214C159.801 256.469 162.21 263.12 164.982 269.787C166.131 272.729 166.791 275.617 167.23 278.743C165.86 277.362 165.86 277.362 164.462 275.953C167.015 284.748 169.941 293.401 172.906 302.063C172.468 301.462 172.029 300.861 171.578 300.241C169.969 298.048 169.969 298.048 167.371 296.484C166.829 295.468 166.286 294.452 165.727 293.405C165.149 292.441 164.571 291.478 163.976 290.485C162.284 290.267 162.284 290.267 160.558 290.044C155.576 278.948 155.014 266.527 154.717 254.54C153.796 255.453 152.876 256.366 151.927 257.307C152.066 258.013 152.204 258.719 152.346 259.446C150.934 259.722 149.523 259.999 148.068 260.284C145.229 262.473 145.13 264.888 144.228 268.323C143.892 269.587 143.555 270.852 143.208 272.154C142.887 273.378 142.565 274.602 142.234 275.863C141.722 277.723 141.207 279.582 140.688 281.441C140.339 282.7 139.99 283.959 139.631 285.257C139.493 284.551 139.354 283.845 139.212 283.118C138.652 282.128 138.092 281.138 137.514 280.119C135.971 283.453 135.155 285.32 136.079 288.941C144.374 305.671 155.002 316.636 172.607 323.222C174.954 323.988 177.245 324.618 179.652 325.175C179.514 324.469 179.376 323.763 179.233 323.036C178.527 323.174 177.821 323.312 177.094 323.454C175.943 320.381 175.943 320.381 174.768 317.247C174.062 317.385 173.356 317.523 172.629 317.665C172.637 315.831 172.644 313.998 172.652 312.108C173.31 312.896 173.968 313.683 174.646 314.494C175.392 315.264 176.138 316.034 176.907 316.828C177.613 316.69 178.319 316.551 179.046 316.409C179.887 317.894 179.887 317.894 180.744 319.408C182.229 318.568 182.229 318.568 183.743 317.71C183.605 317.004 183.467 316.299 183.325 315.571C182.619 315.709 181.913 315.848 181.185 315.99C180.345 314.505 180.345 314.505 179.488 312.991C178.782 313.129 178.076 313.267 177.349 313.41C176.796 310.586 176.243 307.762 175.673 304.853C176.234 305.843 176.794 306.833 177.371 307.853C178.339 308.465 179.306 309.077 180.303 309.708C184.38 312.587 186.881 315.823 189.719 319.872C190.425 319.734 191.131 319.596 191.858 319.453C191.375 316.983 190.891 314.512 190.393 311.966C191.05 312.868 191.708 313.77 192.385 314.7C194.499 317.312 195.869 318.697 198.695 320.336C199.977 321.191 201.256 322.051 202.531 322.916C201.646 321.099 200.758 319.283 199.868 317.469C199.374 316.457 198.88 315.446 198.37 314.404C197.134 311.808 197.134 311.808 195.531 309.85C196.237 309.712 196.943 309.573 197.67 309.431C198.069 310.59 198.069 310.59 198.475 311.772C199.89 314.79 201.113 316.315 203.833 318.219C204.892 318.012 205.951 317.805 207.041 317.591C209.213 321.197 211.385 324.803 213.623 328.518C214.682 328.311 215.741 328.104 216.832 327.89C217.672 329.375 217.672 329.375 218.529 330.89C219.244 330.91 219.958 330.931 220.693 330.952C223.017 331.121 223.017 331.121 224.786 333.066C225.185 333.698 225.583 334.33 225.994 334.981C224.72 335.963 223.447 336.945 222.134 337.958C222.871 338.913 222.871 338.913 223.623 339.887C231.405 339.349 235.843 334.499 239.634 328.076ZM219.367 335.168C218.807 334.178 218.247 333.188 217.669 332.168C217.877 333.227 218.084 334.286 218.298 335.377C218.651 335.308 219.003 335.239 219.367 335.168ZM216.6 332.378C215.111 330.448 215.111 330.448 215.111 330.448L216.6 332.378ZM266.24 319.327C265.749 318.69 265.258 318.054 264.752 317.398C264.115 317.889 263.478 318.38 262.822 318.886C263.95 319.032 265.078 319.177 266.24 319.327ZM208.275 329.566C208.49 328.791 208.705 328.016 208.926 327.217C206.816 325.798 204.706 324.379 202.531 322.916C204.291 325.809 205.434 327.654 208.275 329.566ZM211.275 327.868C209.577 324.869 209.577 324.869 209.577 324.869L211.275 327.868ZM208.088 322.939C206.6 321.009 206.6 321.009 206.6 321.009L208.088 322.939ZM198.044 322.684C196.555 320.755 196.555 320.755 196.555 320.755L198.044 322.684ZM162.697 289.625C160.999 286.626 160.999 286.626 160.999 286.626L162.697 289.625ZM260.699 262.664C260.146 259.84 259.593 257.017 259.024 254.107C258.671 254.177 258.318 254.246 257.954 254.317C258.507 257.14 259.06 259.964 259.629 262.873C259.982 262.804 260.335 262.735 260.699 262.664ZM209.361 272.715C207.872 270.785 207.872 270.785 207.872 270.785L209.361 272.715ZM190.55 273.066C189.062 271.137 189.062 271.137 189.062 271.137L190.55 273.066ZM139.653 279.7C138.165 277.77 138.165 277.77 138.165 277.77L139.653 279.7ZM259.884 252.828C258.396 250.899 258.396 250.899 258.396 250.899L259.884 252.828ZM250.909 252.365C250.494 250.247 250.08 248.129 249.652 245.947C249.016 246.438 248.379 246.93 247.723 247.436C248.421 249.131 249.12 250.827 249.839 252.574C250.192 252.505 250.545 252.436 250.909 252.365ZM142.239 248.237C148.132 237.607 150.441 228.593 150.597 216.477C150.912 208.497 151.475 200.667 152.616 192.76C151.911 192.899 151.205 193.037 150.477 193.179C150.616 193.885 150.754 194.591 150.896 195.318C148.882 196.262 148.882 196.262 146.827 197.225C147.035 198.284 147.242 199.343 147.456 200.434C144.912 201.482 144.912 201.482 142.317 202.551C142.455 203.256 142.594 203.962 142.736 204.69C141.677 204.897 140.618 205.104 139.527 205.318C139.666 206.024 139.804 206.73 139.946 207.457C139.27 207.864 138.594 208.271 137.897 208.691C135.578 210.263 133.601 211.838 131.518 213.688C128.368 216.387 128.368 216.387 126.229 216.806C126.852 216.363 127.476 215.92 128.118 215.464C130.287 213.981 130.287 213.981 130.739 211.481C132.599 209.636 134.459 207.791 136.319 205.946C136.181 205.24 136.042 204.534 135.9 203.807C139.291 202.41 142.683 201.013 146.177 199.574C145.685 198.937 145.194 198.3 144.688 197.644C145.256 196.8 145.824 195.956 146.409 195.086C145.987 194.802 145.564 194.519 145.13 194.226C139.603 195.742 135.827 197.97 131.447 201.625C130.408 202.475 129.369 203.326 128.299 204.202C123.133 209.159 120.486 214.505 117.836 221.087C112.695 233.19 106.6 239.416 95.3315 246.177C95.8301 244.98 96.3286 243.783 96.8423 242.549C96.002 241.065 96.002 241.065 95.1446 239.55C96.1343 238.99 97.1241 238.43 98.1438 237.852C98.0747 237.499 98.0056 237.146 97.9344 236.783C100.478 235.735 100.478 235.735 103.073 234.666C102.349 233.777 102.349 233.777 101.611 232.87C100.096 230.807 100.096 230.807 99.6772 228.668C102.75 227.516 102.75 227.516 105.885 226.342C105.816 225.989 105.747 225.636 105.676 225.272C99.0292 227.18 93.8105 230.519 88.0856 234.338C87.1781 234.935 86.2706 235.531 85.3355 236.146C83.1132 237.607 80.8958 239.076 78.6826 240.552C82.5508 236.523 86.4679 233.296 91.0942 230.118C92.4116 229.202 93.7288 228.285 95.0458 227.369C97.0889 225.956 99.1342 224.546 101.184 223.142C109.447 217.466 117.364 211.868 123.716 203.971C123.647 203.618 123.578 203.265 123.507 202.902C114.636 204.962 103.612 207.628 98.2339 215.624C97.2442 216.184 96.2544 216.744 95.2347 217.321C94.9126 218.484 94.9126 218.484 94.584 219.67C91.7603 220.223 88.9368 220.776 86.0276 221.345C85.5364 220.708 85.0453 220.072 84.5392 219.416C81.3927 220.5 78.645 221.529 75.88 223.401C72.9491 225.207 70.3666 225.684 66.9852 226.184C68.6808 225.486 70.3764 224.787 72.1235 224.067C71.5632 223.078 71.0029 222.088 70.4257 221.068C64.5084 222.894 59.4572 225.52 54.1506 228.697C56.3038 226.881 58.4759 225.099 60.6647 223.326C61.2395 222.837 61.8143 222.347 62.4065 221.842C76.634 210.468 95.4114 204.733 112.292 198.538C121.729 195.061 131.015 191.44 140.014 186.933C140.751 186.577 141.487 186.22 142.245 185.853C144.501 184.732 144.501 184.732 147.314 182.693C148.033 180.281 148.033 180.281 147.546 178.205C146.449 178.353 145.353 178.5 144.223 178.652C142.76 178.845 141.297 179.037 139.834 179.23C139.114 179.327 138.394 179.424 137.653 179.524C134.297 179.962 131.01 180.285 127.625 180.375C123.599 180.496 120.77 181.622 117.598 184.069C112.236 185.502 106.899 186.19 101.346 186.14C105.374 184.252 105.374 184.252 109.483 182.326C107.933 181.896 106.383 181.467 104.786 181.024C107.257 180.541 109.728 180.057 112.273 179.559C107.734 176.167 107.734 176.167 102.329 175.853C83.7159 180.485 67.1258 191.419 51.0546 201.539C50.7782 200.128 50.5018 198.716 50.217 197.261C55.4076 195.695 55.4076 195.695 60.703 194.098C58.378 193.453 58.378 193.453 56.0061 192.796C56.7838 192.323 57.5616 191.85 58.363 191.363C61.07 189.751 61.07 189.751 62.6553 187.052C65.0557 186.137 67.4817 185.286 69.9327 184.517C69.7254 183.458 69.5181 182.399 69.3045 181.308C65.7749 181.999 62.2455 182.69 58.609 183.402C70.5126 177.985 82.5269 175.128 95.2957 172.61C96.1398 172.442 96.9838 172.274 97.8535 172.101C112.393 169.238 126.744 167.503 141.566 166.854C144.281 166.641 146.861 166.175 149.52 165.603C144.631 162.314 138.26 161.927 132.548 160.805C130.443 160.392 130.443 160.392 128.297 159.97C102.116 155.024 75.5095 153.874 52.3641 168.888C42.9642 175.357 35.2917 182.835 28.011 191.614C27.3451 192.33 26.6793 193.046 25.9933 193.783C20.2006 200.356 17.8719 208.275 15.1772 216.457C14.0816 219.776 12.9253 223.074 11.7728 226.374C11.1856 228.091 11.1856 228.091 10.5865 229.843C9.57611 232.682 8.45539 235.441 7.28968 238.219C5.5959 242.515 5.58544 245.748 6.18534 250.304C8.11374 251.869 8.11374 251.869 11.0917 252.675C19.3879 250.771 25.867 246.758 32.989 242.21C34.081 241.525 35.1729 240.839 36.2979 240.133C38.9689 238.454 41.6335 236.766 44.2927 235.069C44.7148 235.353 45.1368 235.637 45.5717 235.929C42.3877 238.385 39.2037 240.841 35.9232 243.371C35.9923 243.724 36.0614 244.077 36.1326 244.441C42.4965 242.444 48.6176 240.068 54.7563 237.463C54.8945 238.169 55.0327 238.874 55.1751 239.602C53.8908 239.945 52.6066 240.288 51.2835 240.641C47.0035 242.021 44.9168 243.937 42.318 247.672C48.4755 246.605 54.3341 244.921 60.2909 243.042C57.501 245.81 57.501 245.81 54.8519 246.814C51.9395 247.774 51.9395 247.774 50.8518 251.554C48.1882 252.839 48.1882 252.839 45.7135 253.67C45.7826 254.023 45.8517 254.376 45.9229 254.74C46.6156 254.659 47.3083 254.577 48.022 254.494C48.9215 254.401 49.8209 254.307 50.7476 254.212C51.6431 254.114 52.5387 254.016 53.4614 253.915C54.2194 253.918 54.9773 253.921 55.7582 253.925C56.495 254.88 56.495 254.88 57.2466 255.854C59.8643 255.861 59.8643 255.861 62.792 255.463C63.7907 255.35 64.7894 255.238 65.8183 255.122C66.5883 255.025 67.3582 254.929 68.1515 254.83C62.0896 256.964 57.2868 258.605 50.8293 257.111C50.6911 256.405 50.5529 255.699 50.4105 254.972C48.6457 255.317 46.881 255.663 45.0628 256.019C45.9032 257.503 45.9032 257.503 46.7605 259.018C43.8678 259.218 40.9751 259.418 37.9947 259.624C40.4858 261.299 42.0335 261.84 44.8986 262.536C45.7545 262.747 46.6104 262.958 47.4922 263.176C48.3861 263.391 49.28 263.606 50.2009 263.828C51.9569 264.257 53.7127 264.687 55.4682 265.117C56.3122 265.323 57.1563 265.528 58.0259 265.74C60.1257 266.269 62.2098 266.859 64.2905 267.459C74.0111 270.019 85.5466 267.137 94.1971 262.363C100.575 258.405 106.631 253.958 112.631 249.453C109.621 253.929 109.621 253.929 106.61 258.406C110.991 256.448 115.372 254.491 119.886 252.475C116.917 254.155 113.947 255.836 110.888 257.568C111.871 258.842 112.853 260.115 113.865 261.427C111.747 261.842 109.63 262.257 107.448 262.684C108.292 263.251 109.136 263.819 110.006 264.404C106.188 267.099 102.433 268.691 98.026 270.22C96.2153 270.854 96.2153 270.854 94.368 271.5C93.4517 271.814 92.5354 272.128 91.5914 272.452C95.6209 275.59 98.2389 275.457 103.208 274.884C120.49 271.883 132.871 263.165 142.239 248.237ZM308.081 226.734C303.109 226.608 303.109 226.608 298.036 226.479C298.926 226.209 299.815 225.939 300.731 225.661C314.744 221.133 326.1 214.882 335.748 203.548C337.195 201.994 337.195 201.994 338.672 200.408C344.248 192.511 347.178 183.286 349.974 174.11C344.783 175.676 344.783 175.676 339.488 177.274C341.114 176.222 342.741 175.171 344.417 174.088C343.219 173.589 342.022 173.09 340.789 172.577C341.004 171.802 341.219 171.027 341.44 170.228C340.76 170.522 340.08 170.815 339.38 171.117C338.474 171.501 337.569 171.884 336.636 172.279C335.744 172.66 334.852 173.041 333.933 173.433C331.228 174.437 328.657 175.037 325.815 175.508C325.186 174.166 324.557 172.823 323.908 171.44C322.074 171.432 320.241 171.425 318.351 171.417C321.389 170.089 324.428 168.761 327.558 167.393C327.067 166.756 326.576 166.12 326.07 165.464C325.364 165.602 324.658 165.74 323.931 165.882C323.793 165.176 323.654 164.471 323.512 163.743C328.703 162.177 328.703 162.177 333.998 160.58C330.49 158.932 330.49 158.932 326.953 158.627C328.072 158.292 328.072 158.292 329.214 157.949C332.59 156.925 335.957 155.871 339.325 154.817C340.499 154.465 341.674 154.114 342.884 153.751C344.006 153.396 345.128 153.04 346.284 152.674C347.839 152.195 347.839 152.195 349.426 151.706C352.163 150.576 352.163 150.576 353.571 147.955C354.591 145.498 354.591 145.498 353.8 142.96C352.273 140.39 350.572 138.486 348.414 136.431C346.34 134.404 344.41 132.272 342.471 130.116C341.736 129.304 341.002 128.491 340.245 127.654C339.039 126.282 337.857 124.888 336.732 123.449C333.274 119.032 329.443 116.68 324.572 114.095C322.436 112.869 322.436 112.869 320.947 110.939C322.214 111.791 323.48 112.642 324.784 113.52C325.739 112.783 325.739 112.783 326.714 112.031C322.177 108.681 317.63 105.346 313.067 102.032C311.525 100.908 309.992 99.7731 308.461 98.6345C303.713 95.2262 298.747 92.4923 292.811 92.0161C291.452 92.646 290.095 93.2821 288.742 93.9232C286.968 93.9075 285.195 93.8288 283.426 93.7147C272.854 93.7857 262.976 98.1239 253.143 101.663C250.475 102.522 247.859 103.098 245.1 103.578C246.795 102.88 248.491 102.181 250.238 101.462C250.1 100.756 249.962 100.05 249.819 99.3227C252.29 98.839 254.761 98.3552 257.306 97.8569C257.237 97.5039 257.168 97.151 257.097 96.7873C254.557 96.9181 252.017 97.0489 249.4 97.1836C250.033 96.9252 250.665 96.6669 251.316 96.4007C252.146 96.0522 252.975 95.7037 253.83 95.3447C254.652 95.0033 255.474 94.662 256.321 94.3103C258.89 93.1659 258.89 93.1659 261.397 90.3925C264.364 90.0643 267.191 89.8627 270.163 89.7869C274.63 89.5993 278.843 89.3361 283.207 88.3436C281.76 86.0096 281.76 86.0096 278.224 85.8704C273.702 85.5957 269.414 86.2191 264.991 87.1209C264.198 87.2808 263.404 87.4408 262.587 87.6056C243.577 91.7296 232.181 102.675 220.95 117.759C213.366 127.889 205.604 137.126 196.271 145.7C195.467 146.473 194.664 147.246 193.836 148.042C193.905 148.395 193.974 148.748 194.045 149.112C200.562 148.44 205.136 144.378 210.111 140.413C209.689 140.13 209.267 139.846 208.832 139.553C210.458 138.502 212.085 137.45 213.761 136.367C213.623 135.661 213.484 134.955 213.342 134.228C217.9 132.236 217.9 132.236 222.549 130.204C221.938 130.828 221.327 131.451 220.698 132.094C220.104 132.806 219.511 133.517 218.899 134.251C219.037 134.957 219.176 135.662 219.318 136.39C222.072 135.484 224.827 134.578 227.665 133.645C227.174 133.008 226.683 132.371 226.177 131.715C227.019 131.104 227.019 131.104 227.878 130.48C230.089 128.696 231.924 126.921 233.686 124.692C233.548 123.986 233.41 123.28 233.267 122.553C236.091 122 238.914 121.448 241.824 120.878C241.389 121.467 240.955 122.056 240.507 122.663C238.975 124.63 238.975 124.63 239.662 126.854C243.628 124.348 247.428 121.656 251.223 118.899C252.352 118.079 253.481 117.26 254.645 116.416C255.501 115.793 256.357 115.17 257.238 114.528C256.632 115.115 256.025 115.702 255.4 116.307C254.232 117.448 254.232 117.448 253.041 118.612C252.261 119.37 251.482 120.129 250.679 120.91C250.082 121.543 249.485 122.177 248.869 122.83C248.938 123.183 249.007 123.536 249.078 123.9C251.503 123.643 253.926 123.374 256.349 123.101C257.698 122.953 259.048 122.804 260.438 122.652C263.827 122.107 266.303 121.313 269.4 119.921C275.398 118.175 280.961 117.726 287.193 118.12C288.39 118.193 289.587 118.265 290.819 118.34C291.723 118.4 292.627 118.461 293.558 118.523C292.849 118.633 292.14 118.742 291.409 118.855C275.307 121.438 261.653 124.897 247.545 133.084C246.941 133.433 246.337 133.783 245.715 134.142C235.979 139.773 226.316 145.521 216.692 151.341C216.762 151.694 216.831 152.047 216.902 152.41C232.785 149.301 248.667 146.191 265.031 142.987C264.962 142.634 264.893 142.281 264.822 141.918C262.635 141.979 260.448 142.041 258.195 142.105C264.011 140.824 269.33 140.21 275.316 140.21C276.076 140.209 276.836 140.208 277.619 140.207C284.41 140.226 291.18 140.524 297.956 140.983C294.93 145.482 289.902 145.953 284.826 146.955C283.352 147.226 281.878 147.493 280.401 147.752C283.029 149.64 283.029 149.64 286.587 150.983C285.839 152.779 285.839 152.779 285.076 154.61C288.322 154.341 291.567 154.072 294.911 153.795C292.772 154.658 290.619 155.489 288.462 156.307C286.666 157.007 286.666 157.007 284.835 157.72C274.482 160.871 263.748 158.958 253.352 157.073C231.389 153.427 212.035 153.775 190.791 160.854C194.835 162.538 198.631 163.014 202.935 163.517C204.673 163.731 206.412 163.944 208.15 164.158C209.513 164.323 209.513 164.323 210.903 164.492C232.954 167.182 254.375 170.63 275.815 176.574C288.09 179.912 299.91 181.882 312.468 179.302C313.808 179.029 315.147 178.757 316.527 178.476C318.052 178.159 318.052 178.159 319.608 177.834C303.217 186.138 282.975 180.455 265.935 177.029C263.216 176.491 260.497 175.955 257.776 175.423C256.102 175.095 254.429 174.763 252.757 174.426C246.027 172.659 246.027 172.659 239.829 174.505C239.285 175.001 238.741 175.497 238.18 176.008C241.211 176.514 244.242 177.02 247.365 177.541C242.35 178.892 239.74 178.552 234.972 176.636C233.913 176.844 232.854 177.051 231.763 177.264C231.909 176.136 232.054 175.009 232.204 173.846C229.242 173.693 226.281 173.54 223.229 173.383C225.309 176.26 227.499 178.487 230.236 180.743C231.022 181.392 231.808 182.04 232.618 182.708C233.437 183.376 234.256 184.044 235.099 184.732C235.895 185.392 236.69 186.051 237.51 186.731C253.349 199.724 269.607 205.843 289.989 208.065C286.459 208.756 282.93 209.447 279.293 210.159C280.134 211.644 280.134 211.644 280.991 213.159C277.531 214.202 274.07 215.246 270.505 216.322C272.615 217.741 274.726 219.161 276.9 220.623C268.709 220.956 263.086 216.071 257.252 210.978C254.451 208.295 251.934 205.491 249.414 202.544C245.295 197.739 241.018 192.87 235.345 189.89C232.53 189.679 232.53 189.679 229.788 189.867C228.096 189.649 228.096 189.649 226.37 189.426C226.508 190.132 226.647 190.838 226.789 191.565C228.988 192.648 228.988 192.648 231.617 193.535C232.504 193.856 233.392 194.178 234.306 194.509C234.995 194.749 235.683 194.99 236.392 195.237C235.302 194.923 235.302 194.923 234.19 194.601C230.497 193.616 227.751 193.597 223.999 194.332C222.176 194.008 220.365 193.616 218.567 193.175C217.625 192.947 216.682 192.719 215.712 192.484C214.994 192.304 214.275 192.124 213.536 191.939C216.919 192.375 220.303 192.812 223.79 193.263C223.935 192.135 224.081 191.007 224.231 189.845C223.328 189.752 222.425 189.66 221.495 189.565C214.92 188.818 209.233 188.052 203.304 185.057C204.142 189.339 206.634 191.058 209.747 193.86C214.559 198.275 219.201 202.795 223.731 207.499C239.605 223.928 255.273 235.258 278.762 235.806C288.718 235.567 300.738 234.018 308.081 226.734ZM249.884 241.46C248.396 239.53 248.396 239.53 248.396 239.53L249.884 241.46ZM186.781 253.815C185.293 251.885 185.293 251.885 185.293 251.885L186.781 253.815ZM101.868 268.218C101.799 267.865 101.73 267.512 101.659 267.149C99.188 267.633 96.7173 268.116 94.1718 268.615C94.2409 268.968 94.31 269.321 94.3812 269.684C96.8518 269.2 99.3225 268.717 101.868 268.218ZM184.874 249.746C183.386 247.816 183.386 247.816 183.386 247.816L184.874 249.746ZM182.967 245.677C181.478 243.747 181.478 243.747 181.478 243.747L182.967 245.677ZM36.5064 257.694C36.4373 257.341 36.3682 256.988 36.297 256.624C34.5322 256.97 32.7675 257.315 30.9493 257.671C31.0184 258.024 31.0875 258.377 31.1587 258.741C32.9234 258.395 34.6882 258.05 36.5064 257.694ZM218.606 206.493C208.227 195.191 195.881 186.199 183.028 177.922C182.212 181.28 182.212 181.28 183.993 183.429C193.213 193.553 203.95 201.284 216.467 206.912C217.173 206.774 217.879 206.636 218.606 206.493ZM183.543 208.916C181.845 205.917 181.845 205.917 181.845 205.917L183.543 208.916ZM226.37 189.426C226.163 188.367 225.956 187.308 225.742 186.217C224.087 185.762 222.427 185.327 220.764 184.901C219.84 184.657 218.917 184.413 217.965 184.161C214.982 183.786 213.744 184.201 211.21 185.731C216.329 187.583 220.911 188.925 226.37 189.426ZM157.291 199.619C161.399 192.362 161.399 192.362 162.056 184.249C158.81 188.531 157.225 192.555 155.803 197.689C156.294 198.326 156.785 198.963 157.291 199.619ZM125.646 202.483C125.861 201.708 126.075 200.933 126.297 200.134C124.954 200.764 123.611 201.393 122.228 202.042C123.356 202.187 124.484 202.333 125.646 202.483ZM221.696 182.567C219.9 181.819 219.9 181.819 218.068 181.056C218.206 181.762 218.345 182.468 218.487 183.195C219.546 182.988 220.605 182.781 221.696 182.567ZM217.208 182.335C212.72 182.103 212.72 182.103 212.72 182.103L217.208 182.335ZM200.955 184.407C200.817 183.701 200.679 182.995 200.537 182.268C199.9 182.759 199.263 183.25 198.607 183.756C199.382 183.971 200.157 184.185 200.955 184.407ZM236.901 175.148C232.414 174.916 232.414 174.916 232.414 174.916L236.901 175.148ZM153.312 179.298C154.946 176.412 156.58 173.527 158.264 170.554C157.205 170.762 156.146 170.969 155.055 171.182C153.211 174.252 153.211 174.252 151.824 177.368C152.315 178.005 152.806 178.641 153.312 179.298ZM119.528 182.58C115.041 182.348 115.041 182.348 115.041 182.348L119.528 182.58ZM113.971 182.558C109.483 182.326 109.483 182.326 109.483 182.326L113.971 182.558ZM128.735 178.557C128.244 177.92 127.753 177.283 127.247 176.627C126.61 177.118 125.973 177.609 125.317 178.115C126.445 178.261 127.573 178.407 128.735 178.557ZM61.3538 191.749C56.8662 191.517 56.8662 191.517 56.8662 191.517L61.3538 191.749ZM267.567 150.265C263.079 150.033 263.079 150.033 263.079 150.033L267.567 150.265ZM177.143 166.303C177.481 165.687 177.819 165.071 178.166 164.437C175.627 164.567 173.087 164.698 170.47 164.833C170.746 166.245 171.023 167.656 171.308 169.111C175.546 168.763 175.546 168.763 177.143 166.303ZM290.887 144.588C290.818 144.235 290.749 143.882 290.678 143.519C285.952 143.711 281.225 143.904 276.355 144.102C276.846 144.739 277.337 145.375 277.844 146.032C282.35 146.45 286.492 145.539 290.887 144.588ZM269.287 147.707C269.218 147.354 269.149 147.001 269.078 146.637C267.313 146.983 265.548 147.328 263.73 147.684C263.799 148.037 263.868 148.39 263.939 148.754C265.704 148.408 267.469 148.063 269.287 147.707ZM274.216 144.521C274.147 144.168 274.078 143.815 274.007 143.451C271.889 143.866 269.771 144.28 267.589 144.708C267.659 145.06 267.728 145.413 267.799 145.777C269.917 145.362 272.034 144.948 274.216 144.521ZM281.494 141.985C277.006 141.753 277.006 141.753 277.006 141.753L281.494 141.985ZM261.172 145.964C261.103 145.611 261.034 145.258 260.963 144.894C258.139 145.447 255.316 146 252.406 146.57C252.475 146.923 252.545 147.276 252.616 147.639C255.439 147.086 258.263 146.534 261.172 145.964ZM273.797 142.382C269.31 142.15 269.31 142.15 269.31 142.15L273.797 142.382ZM160.867 161.16C159.378 159.231 159.378 159.231 159.378 159.231L160.867 161.16ZM217.785 145.574C217.715 145.221 217.646 144.868 217.575 144.505C215.457 144.919 213.34 145.334 211.158 145.761C211.227 146.114 211.296 146.467 211.367 146.831C213.485 146.416 215.603 146.001 217.785 145.574ZM223.992 143.248C219.505 143.016 219.505 143.016 219.505 143.016L223.992 143.248ZM144.427 156.605C144 155.475 143.572 154.345 143.132 153.18C141.892 149.328 141.892 149.328 142.333 145.91C135.751 141.744 129.01 138.218 121.939 134.98C111.397 130.119 101.389 125.137 93.2917 116.642C96.5303 117.799 99.7193 118.992 102.895 120.315C101.705 117.982 100.516 115.65 99.2902 113.247C100.037 113.902 100.784 114.558 101.553 115.233C104.588 117.734 107.719 119.911 111.01 122.058C110.803 120.999 110.596 119.94 110.382 118.849C111.855 120.759 111.855 120.759 113.359 122.708C114.417 122.501 115.476 122.294 116.567 122.08C117.058 122.717 117.55 123.354 118.056 124.01C120.666 126.334 121.687 126.597 125.273 126.484C126.344 126.457 127.415 126.431 128.519 126.403C129.889 127.784 129.889 127.784 131.286 129.193C131.992 129.055 132.698 128.917 133.426 128.774C134.408 130.048 135.39 131.322 136.402 132.634C132.301 121.033 123.958 114.191 114.707 106.55C98.3346 92.9759 83.2546 75.2187 79.8673 53.7484C80.6349 55.797 81.4025 57.8456 82.1933 59.9563C82.5462 59.8872 82.8992 59.8181 83.2628 59.7469C84.7252 64.408 84.7252 64.408 86.217 69.1634C86.57 69.0943 86.9229 69.0252 87.2866 68.954C87.0867 66.0613 86.8868 63.1686 86.6809 60.1882C87.7963 61.8248 88.9102 63.4624 90.0165 65.1052C91.2234 66.8555 92.5014 68.5562 93.787 70.2494C95.808 73.5438 96.5977 75.7143 97.5172 79.3752C98.6167 83.4799 98.8063 84.1244 102.484 86.6625C103.439 86.9793 104.394 87.2962 105.379 87.6227C105.211 83.5077 104.938 79.6987 104.145 75.6483C110.277 81.6316 112.93 88.7552 116.029 96.6429C116.382 96.5738 116.735 96.5047 117.099 96.4335C117.321 93.8247 117.543 91.2158 117.772 88.5279C118.401 89.8706 119.031 91.2133 119.679 92.5967C117.354 83.7775 113.711 75.4086 106.306 69.6723C105.601 69.8105 104.895 69.9487 104.167 70.0911C102.498 64.3711 102.498 64.3711 100.794 58.5355C100.441 58.6046 100.088 58.6737 99.7249 58.7449C98.3662 54.6132 98.3662 54.6132 96.9801 50.3979C96.2742 50.5361 95.5683 50.6744 94.841 50.8168C93.1713 45.0967 93.1713 45.0967 91.468 39.2612C90.1944 40.2435 88.9208 41.2258 87.6086 42.2378C87.3664 41.319 87.3664 41.319 87.1194 40.3815C85.6046 35.0599 83.9342 31.249 80.1894 27.0322C84.749 27.8245 87.0534 30.005 90.3439 33.165C91.26 34.035 92.1762 34.9049 93.1201 35.8012C97.5747 40.2494 100.787 44.2305 103.639 49.8881C104.134 50.8644 104.134 50.8644 104.638 51.8604C105.704 53.9706 106.757 56.0865 107.809 58.2033C108.17 58.923 108.53 59.6428 108.902 60.3844C116.066 74.6823 123.158 89.1216 128.609 104.175C130.335 99.8027 129.588 96.4684 128.445 91.991C128.023 91.7071 127.601 91.4233 127.166 91.1308C126.77 89.3813 126.437 87.6175 126.132 85.85C125.203 80.8265 123.956 76.0378 122.392 71.1778C121.699 68.8798 121.699 68.8798 120.861 64.6016C122.024 64.9237 122.024 64.9237 123.21 65.2523C124.118 67.655 124.958 70.0845 125.745 72.5297C126.356 73.8973 126.979 75.2606 127.652 76.5985C127.871 74.9066 127.871 74.9066 128.094 73.1805C129.256 73.5026 129.256 73.5026 130.442 73.8312C130.693 57.2965 125.591 39.9219 118.671 25.0509C120.685 24.1068 120.685 24.1068 122.739 23.1437C123.154 25.2614 123.569 27.3791 123.996 29.561C125.055 29.3537 126.113 29.1464 127.204 28.9328C127.393 30.1326 127.583 31.3325 127.777 32.5687C128.24 36.5524 128.24 36.5524 131.228 38.1399C131.635 40.1512 131.635 40.1512 131.758 42.6172C131.808 43.4906 131.859 44.3639 131.911 45.2637C131.955 46.1585 131.998 47.0533 132.043 47.9752C132.158 49.6413 132.276 51.3072 132.397 52.9728C132.48 54.2163 132.563 55.4598 132.649 56.741C135.139 52.4322 135.713 48.1267 136.257 43.2633C136.35 42.5079 136.442 41.7525 136.538 40.9743C136.966 37.4047 137.342 33.8511 137.459 30.2568C139.892 39.4596 138.405 47.3654 135.518 56.331C132.784 65.5896 132.537 74.6396 132.54 84.2396C132.539 87.0421 132.503 89.8426 132.462 92.6447C132.275 109.838 135.405 120.722 144.125 135.564C145.004 137.087 145.882 138.612 146.758 140.137C150.547 146.981 150.547 146.981 154.913 153.442C155.619 153.303 156.325 153.165 157.052 153.023C156.885 151.874 156.717 150.726 156.545 149.543C154.778 135.799 154.743 122.272 154.989 108.45C155.231 94.8023 155.215 81.4637 153.431 67.8988C152.781 62.7284 152.638 58.589 154.249 53.6225C155.024 53.8372 155.799 54.0519 156.598 54.2732C156.191 50.3217 155.783 46.3701 155.364 42.2988C156.07 42.1606 156.776 42.0224 157.503 41.88C157.489 43.0966 157.475 44.3133 157.461 45.5668C157.606 46.8899 157.75 48.213 157.899 49.5762C158.506 49.9842 159.113 50.3923 159.738 50.8127C162.359 52.5754 162.636 54.0222 163.453 57.0262C163.812 58.3022 163.812 58.3022 164.179 59.604C164.348 60.2538 164.516 60.9037 164.69 61.5732C165.189 60.3761 165.687 59.1791 166.201 57.9457C167.653 60.9736 168.963 64.0414 170.225 67.1528C171.076 65.8867 171.076 65.8867 171.945 64.5949C172.697 71.125 172.247 76.0649 170.35 82.3288C170.116 83.1384 169.882 83.948 169.641 84.7821C167.673 91.4273 165.284 97.8681 162.804 104.338C159.559 112.845 158.536 118.932 159.932 128.027C161.434 124.42 162.463 120.894 163.49 117.127C164.013 115.215 164.013 115.215 164.547 113.263C164.811 112.288 165.075 111.313 165.348 110.308C165.471 114.682 165.594 119.056 165.721 123.562C166.711 123.002 167.701 122.441 168.721 121.864C169.494 119.166 169.494 119.166 169.88 116.084C170.707 110.484 170.707 110.484 172.834 108.843C172.453 109.879 172.453 109.879 172.064 110.937C171.27 113.506 171.27 113.506 172.487 115.574C173.44 117.608 173.44 117.608 172.909 120.211C172.527 121.248 172.527 121.248 172.139 122.305C172.983 122.873 173.827 123.441 174.697 124.026C190.034 76.333 190.034 76.333 181.19 28.1497C175.773 18.5599 168.713 10.0282 157.959 6.38771C144.594 3.61647 130.271 5.37288 116.822 6.57644C112.339 6.96787 108.115 7.32496 103.624 6.93976C97.0423 6.38291 90.5602 6.93827 83.9826 7.41034C82.5943 7.47742 81.2059 7.54456 79.7755 7.61366C72.9679 7.8481 72.9679 7.8481 67.122 10.812C61.9116 19.7532 62.9635 32.2043 62.7093 42.2645C62.5021 48.656 61.5125 54.7245 60.3049 61.0055C57.0764 79.8995 64.5187 95.3285 74.1629 111.069C75.4358 113.171 76.6656 115.301 77.8273 117.466C84.0122 128.812 93.2911 133.605 104.684 138.743C109.34 140.849 113.734 143.102 118.088 145.798C122.603 148.591 127.194 151.138 131.949 153.495C133.138 154.087 134.326 154.679 135.55 155.289C138.809 156.559 140.973 156.873 144.427 156.605ZM161.189 134.444C161.196 132.61 161.204 130.776 161.211 128.887C160.505 129.025 159.799 129.163 159.072 129.306C159.418 131.071 159.763 132.835 160.119 134.654C160.472 134.584 160.825 134.515 161.189 134.444ZM164.188 132.746C162.7 130.817 162.7 130.817 162.7 130.817L164.188 132.746ZM121.377 95.5959C119.679 92.5967 119.679 92.5967 119.679 92.5967L121.377 95.5959ZM112.192 94.0625C110.285 89.9937 110.285 89.9937 110.285 89.9937L112.192 94.0625ZM107.914 94.9001C107.569 93.1354 107.223 91.3706 106.867 89.5524C106.514 89.6215 106.161 89.6906 105.798 89.7618C106.143 91.5265 106.489 93.2913 106.845 95.1095C107.198 95.0404 107.55 94.9713 107.914 94.9001ZM127.188 85.5737C125.7 83.644 125.7 83.644 125.7 83.644L127.188 85.5737ZM127.42 81.0861C125.932 79.1564 125.932 79.1564 125.932 79.1564L127.42 81.0861ZM130.42 79.3883C130.074 77.6236 129.729 75.8588 129.373 74.0406C129.02 74.1097 128.667 74.1788 128.303 74.25C128.649 76.0148 128.994 77.7795 129.35 79.5978C129.703 79.5286 130.056 79.4595 130.42 79.3883ZM95.3566 81.8111C93.6588 78.8118 93.6588 78.8118 93.6588 78.8118L95.3566 81.8111ZM164.668 67.1303C163.179 65.2006 163.179 65.2006 163.179 65.2006L164.668 67.1303ZM165.109 63.7123C163.621 61.7826 163.621 61.7826 163.621 61.7826L165.109 63.7123ZM162.761 63.0615C161.272 61.1318 161.272 61.1318 161.272 61.1318L162.761 63.0615ZM163.202 59.6435C161.714 57.7138 161.714 57.7138 161.714 57.7138L163.202 59.6435ZM160.644 57.9232C159.156 55.9935 159.156 55.9935 159.156 55.9935L160.644 57.9232ZM158.295 57.2724C156.807 55.3428 156.807 55.3428 156.807 55.3428L158.295 57.2724ZM161.085 54.5051C159.388 51.5059 159.388 51.5059 159.388 51.5059L161.085 54.5051ZM103.562 61.3253C102.073 59.3957 102.073 59.3957 102.073 59.3957L103.562 61.3253ZM100.398 50.8393C98.7004 47.84 98.7004 47.84 98.7004 47.84L100.398 50.8393Z" fill="#4B598D"/>
</svg>
